<svg xmlns="http://www.w3.org/2000/svg" viewBox="0 0 1200 675" role="img" aria-labelledby="t d"><title id="t">Amazon Listing Audit Checklist</title><desc id="d">A checklist organized into retail readiness, relevance, conversion, and economics.</desc><rect width="1200" height="675" fill="#111418"/><circle cx="1080" cy="80" r="260" fill="#00e0ff" opacity=".06"/><text x="70" y="105" fill="#00e0ff" font-family="Arial" font-size="22" font-weight="700" letter-spacing="4">AMAZON SEO / CONVERSION / OPERATIONS</text><text x="70" y="190" fill="#fff" font-family="Arial" font-size="58" font-weight="800">Amazon Listing</text><text x="70" y="255" fill="#fff" font-family="Arial" font-size="58" font-weight="800">Audit Checklist</text><g font-family="Arial" font-size="23"><g transform="translate(70 345)"><rect width="480" height="74" rx="8" fill="#1b2026" stroke="#00e0ff"/><circle cx="38" cy="37" r="17" fill="#00e0ff"/><path d="m29 37 7 7 13-17" fill="none" stroke="#071012" stroke-width="5"/><text x="75" y="45" fill="#fff">Retail readiness</text></g><g transform="translate(650 345)"><rect width="480" height="74" rx="8" fill="#1b2026" stroke="#00e0ff"/><circle cx="38" cy="37" r="17" fill="#00e0ff"/><path d="m29 37 7 7 13-17" fill="none" stroke="#071012" stroke-width="5"/><text x="75" y="45" fill="#fff">Search relevance</text></g><g transform="translate(70 455)"><rect width="480" height="74" rx="8" fill="#1b2026" stroke="#52d273"/><circle cx="38" cy="37" r="17" fill="#52d273"/><path d="m29 37 7 7 13-17" fill="none" stroke="#071012" stroke-width="5"/><text x="75" y="45" fill="#fff">Conversion clarity</text></g><g transform="translate(650 455)"><rect width="480" height="74" rx="8" fill="#1b2026" stroke="#52d273"/><circle cx="38" cy="37" r="17" fill="#52d273"/><path d="m29 37 7 7 13-17" fill="none" stroke="#071012" stroke-width="5"/><text x="75" y="45" fill="#fff">Unit economics</text></g></g><text x="70" y="610" fill="#8f969d" font-family="Arial" font-size="20">Diagnose the constraint before increasing ad spend.</text></svg>
