<svg xmlns="http://www.w3.org/2000/svg" viewBox="0 0 1200 675" role="img" aria-labelledby="t d"><title id="t">Market Share Loss Diagnosis Framework</title><desc id="d">A funnel and diagnostic branches for Amazon visibility, clicks, conversion, and profit.</desc><rect width="1200" height="675" fill="#111418"/><circle cx="1040" cy="100" r="260" fill="#00e0ff" opacity=".06"/><text x="70" y="105" fill="#00e0ff" font-family="Arial" font-size="22" font-weight="700" letter-spacing="4">AMAZON BI / COMMERCIAL DIAGNOSIS</text><text x="70" y="190" fill="#fff" font-family="Arial" font-size="54" font-weight="800">Market Share Loss</text><text x="70" y="252" fill="#fff" font-family="Arial" font-size="54" font-weight="800">Diagnosis Framework</text><g font-family="Arial" font-size="20"><rect x="70" y="340" width="220" height="70" rx="7" fill="#1b2026" stroke="#00e0ff"/><text x="110" y="382" fill="#fff">IMPRESSIONS</text><path d="M300 375h65" stroke="#00e0ff" stroke-width="5"/><rect x="375" y="340" width="180" height="70" rx="7" fill="#1b2026" stroke="#00e0ff"/><text x="425" y="382" fill="#fff">CLICKS</text><path d="M565 375h65" stroke="#00e0ff" stroke-width="5"/><rect x="640" y="340" width="200" height="70" rx="7" fill="#1b2026" stroke="#52d273"/><text x="675" y="382" fill="#fff">PURCHASES</text><path d="M850 375h65" stroke="#52d273" stroke-width="5"/><rect x="925" y="340" width="205" height="70" rx="7" fill="#1b2026" stroke="#52d273"/><text x="975" y="382" fill="#fff">PROFIT</text></g><g fill="#8f969d" font-family="Arial" font-size="19"><text x="90" y="500">Rank · stock · suppression</text><text x="380" y="535">Image · price · rating</text><text x="665" y="500">Offer · reviews · fit</text><text x="925" y="535">Fees · ads · margin</text></g><path d="M180 420v50M465 420v85M740 420v50M1025 420v85" stroke="#4a525a" stroke-width="3"/></svg>
